<svg width="56" height="66" viewBox="0 0 56 66" fill="none" xmlns="http://www.w3.org/2000/svg">
<path d="M14.2629 58.8888C12.2704 58.4757 12.2704 55.63 14.2629 55.2169L26.4867 52.6825C27.4959 52.4733 28.5373 52.4743 29.5461 52.6855L41.6412 55.2176C43.629 55.6337 43.629 58.4719 41.6412 58.888L29.5461 61.4202C28.5373 61.6313 27.4959 61.6323 26.4867 61.4231L14.2629 58.8888Z" fill="#FF820C" fill-opacity="0.15"/>
<path d="M13.1149 11.4422C5.20623 19.3508 5.54092 31.4289 13.4501 39.338C19.5665 45.4544 28.102 46.8855 35.5503 43.5422C37.4556 42.687 39.4044 41.8402 41.0233 40.366C41.2606 40.1498 41.4929 39.9282 41.7199 39.7011C49.6285 31.7925 49.6281 18.9697 41.719 11.0606C34.9221 4.26379 24.4967 3.30761 16.6796 8.19204C15.4002 8.99146 14.2272 10.3298 13.1149 11.4422ZM33.1641 31.0592C29.9656 34.2577 24.9359 34.5128 21.7372 31.3141C18.5385 28.1154 18.3688 22.8308 21.5673 19.6323C24.7658 16.4338 29.9654 16.2508 33.1641 19.4495C36.3628 22.6481 36.3626 27.8607 33.1641 31.0592Z" fill="#FF820C"/>
<g style="mix-blend-mode:multiply" opacity="0.36">
<path d="M34.4282 18.351C32.5509 16.4736 30.0539 15.44 27.3984 15.44C24.743 15.44 22.2469 16.4736 20.3696 18.351C16.4941 22.2264 16.4941 28.5333 20.3704 32.4096C22.2478 34.287 24.7439 35.3215 27.3993 35.3215C30.0547 35.3215 32.5509 34.287 34.4282 32.4096C38.3046 28.5342 38.3046 22.2273 34.4282 18.351ZM33.1906 31.1721C29.9926 34.371 24.806 34.3701 21.608 31.1721C19.5502 29.1142 18.816 26.2342 19.4056 23.5898C19.5236 23.0605 19.5128 22.3647 19.7368 21.8629C20.1334 20.9743 20.7656 20.0605 21.4946 19.3313C22.3777 18.4484 23.4947 17.8992 24.6287 17.5761C25.0067 17.4685 25.3695 17.4346 25.749 17.357C28.3544 16.8239 31.1692 17.568 33.1906 19.5894C36.3887 22.7875 36.3896 27.974 33.1906 31.1721Z" fill="#FF820C"/>
</g>
<g style="mix-blend-mode:multiply" opacity="0.36">
<path d="M41.2129 40.1906C32.6119 46.9892 21.2385 47.1276 13.4963 39.3854C5.58783 31.476 5.20552 19.3426 13.114 11.4341C14.3437 10.2044 15.5778 8.80042 17.0857 7.94489C16.914 8.10504 16.7451 8.26815 16.579 8.43413C8.67048 16.3426 8.67136 29.1654 16.5798 37.0748C23.2595 43.7545 33.4444 44.7934 41.2129 40.1906Z" fill="#FF820C"/>
</g>
<path d="M21.2382 33.8612C19.2918 35.8077 17.7364 36.3933 16.3635 36.8541C16.2879 36.8794 16.1094 36.8624 16.0348 36.8872C14.8227 37.2909 13.8859 37.5432 12.4734 38.8454C12.2013 39.0962 11.8377 39.2232 11.4688 39.1963C11.0999 39.1695 10.8525 39.0817 10.6196 38.7941C10.1588 38.2197 10.2237 37.463 10.7978 36.9976C10.8247 36.9758 10.8523 36.9553 10.8803 36.9359C12.3015 35.6602 13.4261 35.0497 14.5117 34.6569C14.7791 34.5601 15.0389 34.4736 15.2922 34.3893C16.6048 33.9522 17.7385 33.5746 19.3451 31.9682C19.4553 31.858 19.5636 31.7459 19.6699 31.6319C20.0269 31.2487 20.4216 30.9812 20.679 30.6045C21.0965 29.9944 21.8228 29.9302 22.4332 30.3475C23.0435 30.7647 23.0291 31.3685 22.612 31.9787C22.2753 32.4713 22.0715 32.9829 21.6175 33.4692C21.4933 33.6019 21.3668 33.7326 21.2382 33.8612Z" fill="#F55349"/>
<path d="M35.879 19.2202C35.2575 19.8417 34.6519 20.3513 34.0275 20.7782C33.4172 21.1954 32.5842 21.0388 32.167 20.4285C31.7497 19.8181 31.9068 18.9846 32.5165 18.5681C33.0025 18.2359 33.483 17.83 33.9859 17.3271C35.5926 15.7205 35.9701 14.5868 36.4072 13.2741C36.8339 11.993 37.3161 10.5453 38.9062 8.77384C38.9256 8.74575 38.9461 8.71827 38.9679 8.6914C39.4336 8.11673 40.2744 8.02833 40.849 8.49194L40.8601 8.50078C41.0023 8.61596 41.1194 8.75909 41.2042 8.92131C41.2889 9.08353 41.3395 9.2614 41.3528 9.44394C41.3661 9.62648 41.3418 9.8098 41.2815 9.9826C41.2212 10.1554 41.1261 10.314 41.002 10.4486C39.6996 11.8612 39.351 12.908 38.9474 14.1202C38.4718 15.548 37.9327 17.1665 35.879 19.2202Z" fill="#F55349"/>
<path d="M34.5242 4.96255C33.9126 4.547 33.0798 4.70585 32.6647 5.31737C31.8446 6.52421 31.5053 7.5918 31.206 8.5338C30.8008 9.8082 30.3899 10.9699 28.851 12.5088C28.1234 13.2364 27.4936 13.6983 26.8973 14.0258C26.0143 14.5107 25.2827 14.7053 24.937 14.8027C24.4261 14.9467 21.5774 15.7497 19.7209 17.5663C17.7784 19.467 16.9395 22.4601 16.8071 22.9326C16.7134 23.2671 16.5178 24.005 16.0304 24.8927C15.7029 25.4891 15.2411 26.1187 14.5134 26.8464C13.2665 28.0933 12.4678 28.399 11.5316 28.6855C11.3126 28.7526 11.1741 28.9521 10.9325 29.0289C9.88474 29.3617 8.65506 29.6846 7.28263 30.7123C6.68993 31.1558 6.60118 31.8337 7.04431 32.4254C7.48743 33.0172 8.16205 33.1319 8.75378 32.6888C9.76388 31.9325 10.5998 31.6669 11.5677 31.3593C11.844 31.2716 12.2056 31.2785 12.4828 31.1903C13.6149 30.8305 14.8003 30.3458 16.4067 28.7395C16.9066 28.2395 17.3132 27.7651 17.6488 27.3128C18.6557 25.9556 18.9811 24.8065 19.3158 23.7532C19.6982 22.8612 19.9106 21.3744 21.3124 19.8876C22.0681 19.1874 22.7101 18.6068 23.1814 18.3584C24.0515 17.8999 24.7829 17.5995 25.7484 17.3542C26.816 17.0829 27.7176 16.6255 28.1092 16.4147C28.909 15.9842 29.7791 15.367 30.7442 14.4019C32.744 12.402 33.311 10.7492 33.7574 9.34486C34.0369 8.4657 34.2782 7.70654 34.8792 6.82204C35.2946 6.21053 35.1357 5.37802 34.5242 4.96255Z" fill="#F55349"/>
<path d="M25.1856 10.781C23.3817 12.5849 21.8856 12.9668 20.5656 13.304C20.1885 13.4002 19.8323 13.4913 19.4818 13.6135C18.8795 13.8237 18.0478 14.0811 17.09 15.0388C16.1371 15.9918 15.8805 16.8176 15.6705 17.4149C15.5453 17.7705 15.4532 18.1317 15.3555 18.5142C15.0184 19.8341 14.6364 21.3302 12.8326 23.1341C12.0873 23.8793 11.3945 24.382 10.745 24.7389C9.82244 25.2459 8.94818 25.3134 8.17362 25.5112C8.00111 25.5553 7.82869 25.5992 7.65514 25.647C6.94236 25.8432 6.40646 25.5553 6.21006 24.8426C6.01384 24.1298 6.35202 23.5194 7.0648 23.323C7.25446 23.2708 7.44298 23.2226 7.63168 23.1744C8.72929 22.8942 9.52994 22.5575 10.6873 21.4839C10.7699 21.4073 10.8539 21.3265 10.9394 21.241C12.224 19.9563 12.4611 19.0276 12.7614 17.8518C12.8692 17.4297 12.9806 16.9934 13.145 16.5262C13.5728 15.3105 14.1655 14.1771 15.1969 13.1457C16.2479 12.0948 17.3574 11.5195 18.5995 11.0859C19.0586 10.9256 19.4879 10.816 19.9031 10.71C21.0791 10.4097 22.0079 10.1725 23.2926 8.88786C24.5772 7.60321 24.8144 6.67434 25.1148 5.49849C25.1582 5.32861 25.2016 5.15881 25.2479 4.98815C25.442 4.27467 26.1774 3.8536 26.8907 4.04746C27.6042 4.24141 28.0253 4.97694 27.8315 5.69033C27.7893 5.84687 27.7484 6.00375 27.7088 6.16094C27.3715 7.48095 26.9894 8.97713 25.1856 10.781Z" fill="#F55349"/>
<path d="M26.1426 38.8505C24.8644 40.1287 23.7558 40.8349 22.7573 41.3038C22.123 41.6017 21.4744 41.6747 20.9136 41.8668C19.8122 42.2443 18.7663 42.608 17.5504 43.6098C16.9799 44.0799 16.4117 43.9346 15.9415 43.3639C15.4714 42.7933 15.5157 42.1919 16.0868 41.7215C17.4859 40.5686 18.6016 39.9893 19.6717 39.6129C19.8182 39.5614 19.9624 39.512 20.1042 39.4634C21.4423 39.0049 22.5978 38.6089 24.2493 36.9573C24.9076 36.299 25.3655 35.723 25.7084 35.1794C26.1543 34.4725 26.4926 33.8709 26.7384 33.163C26.9808 32.4648 27.6488 32.1085 28.3473 32.351C29.0457 32.5936 29.3571 33.2335 29.1145 33.9319C28.9744 34.3356 28.8884 34.8082 28.6978 35.2382C28.2217 36.3125 27.5062 37.4867 26.1426 38.8505Z" fill="#F55349"/>
<path d="M41.1088 23.8843C39.6264 25.3667 38.3578 26.0844 37.2682 26.5401C36.8226 26.7265 36.4945 26.7815 36.1064 26.9145C35.4071 27.1543 34.6458 26.7819 34.4059 26.0826C34.166 25.3833 34.4507 24.797 35.1503 24.5571C35.8174 24.3284 36.4646 24.0189 37.1765 23.6067C37.7901 23.2515 38.4517 22.755 39.2156 21.9911C40.8672 20.3395 41.263 19.1841 41.7215 17.846C42.0982 16.7464 42.5252 15.5002 43.6542 14.0418C44.1069 13.4573 44.9475 13.3502 45.5322 13.8029C46.1167 14.2555 46.2238 15.0962 45.7713 15.6808C44.9141 16.7881 44.6083 17.6805 44.2543 18.7139C43.7595 20.1577 43.1989 21.7942 41.1088 23.8843Z" fill="#F55349"/>
<path d="M21.628 19.5486C21.0259 20.1508 20.6032 20.7424 20.2925 21.3043C20.6529 20.6769 21.0949 20.1 21.607 19.5889C21.7322 19.4637 21.8609 19.3429 21.9921 19.2283C21.8731 19.3272 21.7515 19.4339 21.628 19.5486ZM21.628 19.5486C21.0259 20.1508 20.6032 20.7424 20.2925 21.3043C20.6529 20.6769 21.0949 20.1 21.607 19.5889C21.7322 19.4637 21.8609 19.3429 21.9921 19.2283C21.8731 19.3272 21.7515 19.4339 21.628 19.5486ZM21.628 19.5486C21.0259 20.1508 20.6032 20.7424 20.2925 21.3043C20.6529 20.6769 21.0949 20.1 21.607 19.5889C21.7322 19.4637 21.8609 19.3429 21.9921 19.2283C21.8731 19.3272 21.7515 19.4339 21.628 19.5486ZM21.628 19.5486C21.0259 20.1508 20.6032 20.7424 20.2925 21.3043C20.6529 20.6769 21.0949 20.1 21.607 19.5889C21.7322 19.4637 21.8609 19.3429 21.9921 19.2283C21.8731 19.3272 21.7515 19.4339 21.628 19.5486ZM21.628 19.5486C21.0259 20.1508 20.6032 20.7424 20.2925 21.3043C20.6529 20.6769 21.0949 20.1 21.607 19.5889C21.7322 19.4637 21.8609 19.3429 21.9921 19.2283C21.8731 19.3272 21.7515 19.4339 21.628 19.5486Z" fill="#F55349"/>
<g style="mix-blend-mode:multiply" opacity="0.36">
<path d="M22.7965 32.009C22.7737 32.0423 22.751 32.0756 22.7273 32.1088C22.407 32.5666 22.0412 33.0156 21.6176 33.4689C21.1773 33.1538 20.7607 32.8002 20.3704 32.4099C20.1209 32.1605 19.8873 31.9005 19.6702 31.6318C20.0264 31.2485 20.3284 30.8748 20.5866 30.4984C20.6522 30.403 20.7266 30.319 20.8097 30.2464C21.2578 29.8534 21.9318 29.7956 22.4464 30.1483C23.0573 30.5658 23.214 31.399 22.7965 32.009Z" fill="#F55349"/>
</g>
<g style="mix-blend-mode:multiply" opacity="0.36">
<path d="M35.4863 19.6002C35.0338 20.0229 34.5848 20.3887 34.1271 20.7091C34.0938 20.7327 34.0606 20.7555 34.0273 20.7782C33.4173 21.1957 32.5841 21.039 32.1666 20.4281C31.8148 19.9135 31.8716 19.2396 32.2646 18.7915C32.3373 18.7083 32.4213 18.6331 32.5167 18.5683C32.8939 18.3101 33.2676 18.0082 33.651 17.6511C33.9205 17.869 34.1796 18.1027 34.4282 18.3512C34.8211 18.7442 35.1738 19.1626 35.4863 19.6002Z" fill="#F55349"/>
</g>
<g style="mix-blend-mode:multiply" opacity="0.36">
<path d="M29.3379 15.6282C28.909 15.9476 28.5012 16.2032 28.1091 16.4141C27.7178 16.625 26.8155 17.0828 25.7486 17.3541C25.725 17.3602 25.6987 17.3664 25.669 17.3742C25.6663 17.3751 25.6637 17.3751 25.6611 17.376C24.2997 17.6691 23.0364 18.3067 21.9922 19.228C21.8731 19.3269 21.7515 19.4336 21.6281 19.5483C21.0259 20.1504 20.6032 20.7421 20.2925 21.304C19.8831 22.0167 19.5845 22.7875 19.4068 23.59C19.3901 23.6426 19.3744 23.6933 19.3586 23.7432C19.0243 24.7961 18.6558 25.9531 17.6511 27.3089C17.0332 24.1659 17.9399 20.7806 20.3695 18.351C22.2469 16.4736 24.743 15.44 27.3984 15.44C28.0574 15.44 28.706 15.5039 29.3379 15.6282Z" fill="#F55349"/>
</g>
<g style="mix-blend-mode:multiply" opacity="0.36">
<path d="M29.1812 33.9903C29.0411 34.3938 28.8889 34.8078 28.6972 35.2375C28.2701 35.2935 27.8368 35.3215 27.3992 35.3215C26.8268 35.3215 26.2615 35.2734 25.7083 35.1789C26.0672 34.61 26.3 34.077 26.5048 33.5221H26.5056C26.5555 33.3873 26.6037 33.2508 26.6518 33.1116C26.8942 32.4141 27.6574 32.0438 28.3559 32.2863C28.588 32.3667 28.7935 32.5096 28.9498 32.6992C29.106 32.8888 29.207 33.1178 29.2416 33.361H29.2424C29.2713 33.5658 29.2538 33.7811 29.1812 33.9903Z" fill="#F55349"/>
</g>
<g style="mix-blend-mode:multiply" opacity="0.36">
<path d="M37.2682 26.5396C36.8227 26.726 36.407 26.8687 36.0193 27.0017C35.8189 27.0709 35.6123 27.0892 35.4154 27.0639C35.1673 27.0321 34.9331 26.9314 34.7393 26.7733C34.5454 26.6152 34.3998 26.406 34.3187 26.1694C34.0789 25.4701 34.4509 24.7095 35.1502 24.4688C35.2754 24.4259 35.3996 24.3831 35.523 24.3402C36.0622 24.1503 36.5978 23.9411 37.1763 23.6059C37.3514 24.5747 37.382 25.5637 37.2682 26.5396Z" fill="#F55349"/>
</g>
<path d="M45.9095 30.0803C43.8947 32.0951 42.2956 32.6101 40.8847 33.0644C40.4784 33.1952 40.0946 33.3189 39.709 33.4753C38.995 33.7648 38.1068 34.2189 36.9326 35.3931C35.733 36.5927 35.2728 37.5128 34.9808 38.2548C34.8402 38.6121 34.7255 38.9681 34.6041 39.3452C34.2653 40.3972 33.8928 41.554 32.8898 42.9097C32.5478 43.372 32.1324 43.6824 31.6201 44.1948C29.6054 46.2094 28.0063 46.7243 26.5954 47.1787L26.3507 47.2577C25.6477 47.4864 25.0675 47.3645 24.8387 46.6615C24.6099 45.9585 24.9944 45.2031 25.6974 44.9744L25.9499 44.8929C27.0967 44.5236 27.9289 44.1117 29.2396 42.9387C29.4063 42.7893 29.5688 42.6352 29.727 42.4767C31.2846 40.9191 31.642 39.8093 32.0558 38.5244C32.1846 38.1243 32.3179 37.7106 32.4896 37.2742C32.8596 36.3343 33.4836 35.0559 35.0395 33.5C36.2265 32.313 37.3564 31.5402 38.703 30.9942C39.1801 30.8009 39.6295 30.6561 40.0639 30.5162C41.3489 30.1024 42.4587 29.7451 44.0165 28.1873C45.5744 26.6294 45.9318 25.5195 46.3458 24.2344C46.4509 23.9081 46.5595 23.5707 46.6898 23.2196C46.9467 22.5265 47.717 22.173 48.4103 22.4301C49.1035 22.6871 49.457 23.4575 49.2 24.1507C49.0901 24.447 48.9949 24.7425 48.8942 25.0553C48.4396 26.4661 47.9244 28.0654 45.9095 30.0803Z" fill="#F55349"/>
<g style="mix-blend-mode:multiply" opacity="0.36">
<path d="M16.3636 36.854C16.2883 36.8794 16.2131 36.9047 16.1387 36.9293C14.9265 37.3327 13.8797 37.6811 12.4671 38.9834C12.454 38.9956 12.4409 39.007 12.4277 39.0184C12.1601 39.2467 11.8132 39.3602 11.4624 39.3344C11.093 39.3072 10.7517 39.1287 10.5189 38.8416C10.5163 38.8381 10.511 38.832 10.5075 38.8276C10.0471 38.2526 10.1355 37.415 10.7097 36.9494C10.7237 36.938 10.7368 36.9275 10.7508 36.9179C10.7639 36.9074 10.7779 36.8977 10.7919 36.8872C12.2133 35.6121 13.4264 35.0493 14.5116 34.6563C15.076 35.4319 15.6949 36.1663 16.3636 36.854Z" fill="#F55349"/>
</g>
<g style="mix-blend-mode:multiply">
<path d="M12.4829 31.1908C12.2055 31.2784 11.9316 31.3598 11.655 31.4473C10.687 31.7545 9.85116 32.0197 8.84115 32.7767C8.76413 32.8345 8.68274 32.8826 8.59872 32.9211C8.0377 33.1802 7.35241 33.0218 6.96731 32.5072C6.52445 31.9155 6.64348 31.0771 7.23688 30.6333C7.4093 30.5047 7.57821 30.3856 7.7445 30.2762V30.2754C8.90505 29.5122 9.92818 29.1866 10.8445 28.8951C11.0861 28.8181 11.3128 28.7525 11.5316 28.6851C11.7915 29.5367 12.1083 30.3734 12.4829 31.1908Z" fill="#F55349"/>
</g>
<g style="mix-blend-mode:multiply" opacity="0.36">
<path d="M10.7447 24.7384C9.82225 25.246 8.98729 25.4587 8.21272 25.6565C8.04031 25.7011 7.86789 25.7449 7.69372 25.7921C7.51167 25.8429 7.32788 25.8525 7.15196 25.828C6.63996 25.7554 6.19447 25.3878 6.04831 24.8574C5.85226 24.1441 6.27061 23.408 6.98304 23.2111C7.07932 23.1849 7.17559 23.1595 7.27099 23.135C7.36464 23.1105 7.45741 23.0868 7.55018 23.0623C8.64771 22.7823 9.52993 22.5573 10.687 21.4834C10.6196 22.567 10.6388 23.6566 10.7447 24.7384Z" fill="#F55349"/>
</g>
<g style="mix-blend-mode:multiply" opacity="0.36">
<path d="M22.7571 41.3029C22.1225 41.6014 21.5326 41.8035 20.9725 41.9961C19.9966 42.3304 19.1398 42.6236 18.1114 43.3824C17.9731 43.4851 17.8374 43.5914 17.7044 43.701C17.1338 44.171 16.2901 44.0896 15.8201 43.519C15.6386 43.2991 15.5321 43.027 15.516 42.7424C15.4999 42.4578 15.5752 42.1754 15.7308 41.9366C15.8035 41.8254 15.8936 41.723 16.0013 41.6346C17.4007 40.4811 18.6015 39.9892 19.6719 39.6129C20.6486 40.2659 21.681 40.8315 22.7571 41.3029Z" fill="#F55349"/>
</g>
<g style="mix-blend-mode:multiply" opacity="0.36">
<path d="M32.8904 42.9096C32.5482 43.3717 32.1324 43.8574 31.6204 44.3694C31.2222 44.7677 30.8406 45.1064 30.4739 45.3987H30.473C28.9808 46.5855 27.7275 46.989 26.5958 47.3531L26.3507 47.4327C25.6479 47.6611 24.8926 47.2769 24.6633 46.5732C24.5382 46.1873 24.5968 45.7855 24.7929 45.4643C24.953 45.2 25.2051 44.99 25.5219 44.8867L25.7749 44.8044C26.9214 44.436 27.9288 44.1113 29.2398 42.9385C30.4551 43.0383 31.6769 43.0286 32.8904 42.9096Z" fill="#F55349"/>
</g>
</svg>
