<svg width="40" height="60" viewBox="0 0 40 60" fill="none" xmlns="http://www.w3.org/2000/svg">
<path d="M6.26288 56.8888C4.2704 56.4757 4.27041 53.63 6.26288 53.2169L18.4867 50.6825C19.4959 50.4733 20.5373 50.4743 21.5461 50.6855L33.6412 53.2176C35.629 53.6337 35.629 56.4719 33.6412 56.888L21.5461 59.4202C20.5373 59.6313 19.4959 59.6323 18.4867 59.4231L6.26288 56.8888Z" fill="#F54966" fill-opacity="0.15"/>
<path d="M24.0005 9.30574C23.6197 9.05681 23.1511 9.02752 22.7411 9.21788L21.9943 12.5126C22.0529 14.1381 22.1847 16.5249 22.5654 19.0143C23.4879 25.267 25.3916 29.1328 28.1885 30.4361C28.8474 30.7583 29.6382 30.48 29.9457 29.8211C30.2678 29.1621 29.9896 28.4007 29.3306 28.0785C25.7137 26.3799 24.513 16.3492 24.6008 10.4333C24.6155 9.97934 24.3958 9.55468 24.0151 9.30574H24.0005Z" fill="#FF820C"/>
<path d="M22.8436 12.3518C22.9608 12.2054 23.0779 12.059 23.1658 11.9125C23.6783 11.0779 23.5758 9.92104 23.1658 9.10101C16.9717 12.4836 12.7983 19.4392 10.5139 25.8823C9.95748 27.4345 9.45961 29.0306 9.1521 30.656C9.02031 31.3736 9.4889 32.0471 10.2064 32.1789C10.3382 32.1936 10.47 32.1936 10.6018 32.1789C11.1582 32.1057 11.6268 31.6811 11.7293 31.11C12.5786 26.7902 14.3212 22.6315 16.7959 18.9853C18.026 17.1841 19.4317 15.5002 21.0132 13.9919C21.5697 13.4501 22.3165 12.9669 22.8436 12.3518Z" fill="#FF820C"/>
<g style="mix-blend-mode:multiply" opacity="0.36">
<g style="mix-blend-mode:multiply">
<path d="M24.0005 9.30574C23.6197 9.05681 23.1511 9.02752 22.7411 9.21788C22.6093 9.27646 22.5361 9.58397 22.4776 9.70111C22.214 10.2429 22.0383 10.6529 22.009 11.2826C21.9504 13.728 22.1554 16.2906 22.5068 18.7068C22.5068 18.8093 22.5361 18.9118 22.5508 19.0143C23.4733 25.267 25.3769 29.1328 28.1738 30.4361C28.8328 30.7583 29.6235 30.48 29.931 29.8211C30.2532 29.1621 29.975 28.4007 29.316 28.0785C25.6991 26.3799 24.4983 16.3492 24.5862 10.4333C24.6008 9.97934 24.3812 9.55468 24.0005 9.30574Z" fill="#FF820C"/>
</g>
</g>
<path d="M28.7449 43.923C34.7047 43.923 39.5371 39.12 39.5371 33.1894C39.5371 27.2588 34.7047 22.4558 28.7449 22.4558C22.7851 22.4558 17.9528 27.2588 17.9528 33.1894C17.9528 39.12 22.7851 43.923 28.7449 43.923Z" fill="#F54966"/>
<g style="mix-blend-mode:multiply" opacity="0.4">
<path d="M33.7383 23.6711C34.7926 25.3258 35.393 27.2881 35.393 29.3821C35.393 35.298 30.5607 40.1156 24.6008 40.1156C22.7997 40.1156 21.1011 39.6617 19.6075 38.9002C21.5111 41.9168 24.8937 43.9229 28.7449 43.9229C34.6901 43.9229 39.5371 39.1052 39.5371 33.1893C39.5371 29.0453 37.1795 25.4576 33.7383 23.6711Z" fill="#F54966"/>
</g>
<path d="M10.7922 43.923C16.752 43.923 21.5843 39.12 21.5843 33.1894C21.5843 27.2588 16.752 22.4558 10.7922 22.4558C4.83231 22.4558 0 27.2588 0 33.1894C0 39.12 4.83231 43.923 10.7922 43.923Z" fill="#F54966"/>
<g style="mix-blend-mode:multiply" opacity="0.4">
<g style="mix-blend-mode:multiply">
<path d="M14.863 26.9364C16.3859 31.6808 13.7062 36.7621 8.87387 38.2996C5.85734 39.2661 2.95796 38.6071 0.658951 36.8499C2.44544 41.9605 8.39064 45.2259 13.9698 43.4394C19.9296 41.5358 22.8583 35.4442 21.0425 29.8358C19.6807 25.6185 15.888 22.8216 11.6415 22.4848C13.1204 23.5538 14.2773 25.0913 14.863 26.9364Z" fill="#F54966"/>
</g>
</g>
<path d="M7.40954 39.9839C8.36136 39.9839 9.12281 39.2224 9.12281 38.2853C9.12281 37.3481 8.36136 36.5866 7.40954 36.5866C6.45772 36.5866 5.69627 37.3481 5.69627 38.2853C5.69627 39.2224 6.45772 39.9839 7.40954 39.9839Z" fill="#FF820C"/>
<path d="M28.7449 38.285C29.6967 38.285 30.4582 37.5236 30.4582 36.5864C30.4582 35.6492 29.6967 34.8878 28.7449 34.8878C27.7931 34.8878 27.0316 35.6492 27.0316 36.5864C27.0316 37.5236 27.7931 38.285 28.7449 38.285Z" fill="#FF820C"/>
<path d="M33.3576 4.89816C33.6651 5.13246 33.7236 5.57176 33.5333 5.89391C32.6693 7.43146 32.0397 8.63222 31.0293 9.71583C29.6089 11.2387 27.7199 11.8245 26.153 11.8684C24.9816 11.8977 23.9272 11.7513 22.4776 11.0044C22.1554 10.8287 21.9797 10.448 22.0675 10.0966C22.8143 7.21181 24.4983 5.54247 25.3037 4.88352C26.197 4.15135 27.2513 3.68276 28.3495 3.52169C30.0628 3.25811 31.8347 3.75598 33.3429 4.89816H33.3576Z" fill="#70AB34"/>
<g style="mix-blend-mode:multiply" opacity="0.26">
<path d="M33.3576 4.89816C33.6651 5.13246 33.7236 5.57176 33.5333 5.89391C32.6693 7.43146 32.0397 8.63222 31.0293 9.71583C29.6089 11.2387 27.7199 11.8245 26.153 11.8684C24.9816 11.8977 23.9272 11.7513 22.4776 11.0044C22.1554 10.8287 21.9797 10.448 22.0675 10.0966C22.8143 7.21181 24.4983 5.54247 25.3037 4.88352C26.197 4.15135 27.2513 3.68276 28.3495 3.52169C30.0628 3.25811 31.8347 3.75598 33.3429 4.89816H33.3576Z" fill="#70AB34"/>
</g>
<path d="M23.1512 10.1992C23.0926 10.7263 22.624 11.1363 22.0822 11.151C19.6075 11.2535 17.7185 11.3999 15.6684 10.9899C12.7837 10.4188 10.6897 8.61768 9.50354 6.8019C8.59565 5.42543 8.00992 4.06359 7.8342 1.80852C7.79027 1.296 8.12706 0.812769 8.62494 0.666335C12.6226 -0.563707 15.8588 0.197748 17.2499 0.666335C18.7874 1.1935 20.12 2.08674 21.1304 3.25821C22.7119 5.10327 23.4147 7.56336 23.1512 10.1845V10.1992Z" fill="#70AB34"/>
</svg>
