<svg width="56" height="66" viewBox="0 0 56 66" fill="none" xmlns="http://www.w3.org/2000/svg">
<path d="M14.2629 56.7828C12.2704 56.3697 12.2704 53.524 14.2629 53.1109L26.4867 50.5766C27.4959 50.3674 28.5373 50.3684 29.5461 50.5795L41.6412 53.1117C43.629 53.5278 43.629 56.366 41.6412 56.7821L29.5461 59.3142C28.5373 59.5254 27.4959 59.5264 26.4867 59.3172L14.2629 56.7828Z" fill="#FF820C" fill-opacity="0.15"/>
<path d="M50.9745 22.1382C51.3758 17.5532 46.9611 17.1397 43.5071 17.0911C38.2775 17.0181 33.1209 14.9992 29.1926 11.5574C25.2644 8.11562 19.4753 6.8143 14.5619 9.25883C10.281 11.3993 6 14.4763 6 22.2355C6 29.9948 12.2998 35.9541 20.0834 36.2824C26.517 36.55 32.1723 35.4554 37.791 33.3028C40.6126 32.2204 43.3125 30.7975 45.7206 28.961C47.8854 27.307 50.6948 25.0571 50.9745 22.1382Z" fill="#F55349"/>
<path d="M20.0834 36.2824C12.3242 35.9418 6 30.0068 6 22.2354V28.0001C6 35.7472 12.2998 42.0471 20.0834 42.0471C38.6789 42.0471 47.6665 33.8378 49.8556 30.7244C50.4272 30.0433 50.9015 28.9488 50.9745 28.0001V22.126C50.8893 23.0746 50.4272 24.2786 49.8556 24.9597C47.6665 28.0731 36.6965 36.9999 20.0834 36.2824Z" fill="#F55349"/>
<g style="mix-blend-mode:multiply" opacity="0.6">
<path d="M20.0834 36.2824C12.3242 35.9418 6 30.0068 6 22.2354V28.0001C6 35.7472 12.2998 42.0471 20.0834 42.0471C38.6789 42.0471 47.6665 33.8378 49.8556 30.7244C50.4272 30.0433 50.9015 28.9488 50.9745 28.0001V22.126C50.8893 23.0746 50.4272 24.2786 49.8556 24.9597C47.6665 28.0731 36.6965 36.9999 20.0834 36.2824Z" fill="#F55349"/>
</g>
<g style="mix-blend-mode:multiply" opacity="0.6">
<path d="M10.4026 19.3289C10.4026 19.3289 10.3418 19.4262 10.3053 19.4748C9.67289 20.4721 9.4783 21.6883 9.50262 22.8801C9.57559 25.4341 10.3539 28.134 12.7255 29.4597C15.0119 30.7367 20.7158 30.2624 18.928 26.3706C18.6118 25.6895 18.0889 25.1179 17.4808 24.6557C15.8146 23.3666 15.316 22.6734 15.4011 20.5086C15.5106 17.4803 11.9107 17.2005 10.4026 19.341V19.3289Z" fill="#F55349"/>
</g>
<g style="mix-blend-mode:multiply" opacity="0.6">
<path d="M24.4982 26.1883C23.0874 26.687 21.932 27.9518 21.7861 29.3504C21.6888 30.2869 22.1631 31.2963 23.0874 31.722C24.2063 32.2327 25.4833 32.1111 26.6873 32.0746C28.0251 32.0382 29.3629 31.9165 30.6885 31.722C32.8047 31.4179 34.9087 30.9193 36.9397 30.226C38.7397 29.618 40.6734 28.8518 41.9139 27.3437C43.3733 25.5681 41.2207 24.1938 39.5667 25.1302C37.3167 26.3951 35.1398 27.1005 32.452 26.6383C29.9345 26.2126 27.0157 25.3127 24.4982 26.1883Z" fill="#F55349"/>
</g>
<g style="mix-blend-mode:multiply" opacity="0.6">
<path d="M23.732 14.1112C22.1631 13.5761 19.6699 12.7734 18.3199 13.7585C16.1065 15.3761 18.8551 19.3895 20.3753 20.5205C21.3482 21.2381 22.5766 21.5299 23.7806 21.6394C26.0062 21.834 29.0224 22.4786 31.0899 21.311C33.0358 20.2165 31.7709 18.2584 30.3966 17.3828C28.4386 16.1179 26.3589 14.9869 24.1455 14.2328C24.0238 14.1964 23.8901 14.1477 23.7441 14.0991L23.732 14.1112Z" fill="#F55349"/>
</g>
<g style="mix-blend-mode:multiply" opacity="0.6">
<path d="M36.0276 20.8244C37.6816 20.0826 39.9437 20.0096 39.0802 21.6393C38.2167 23.269 33.583 21.919 36.0276 20.8244Z" fill="#F55349"/>
</g>
</svg>
