<svg width="56" height="66" viewBox="0 0 56 66" fill="none" xmlns="http://www.w3.org/2000/svg">
<path d="M27.125 28.2188C27.125 29.8402 33.355 28.6667 34.5625 28.6667C35.1427 28.6667 35.6991 28.4307 36.1093 28.0107C36.5195 27.5907 36.75 27.0211 36.75 26.4271C36.75 25.8331 36.5195 25.2635 36.1093 24.8435C35.6991 24.4235 35.1427 24.1875 34.5625 24.1875C32.13 24.1875 27.125 27.8783 27.125 28.2188ZM27.125 32.6979C27.125 31.0765 33.355 32.25 34.5625 32.25C35.1427 32.25 35.6991 32.486 36.1093 32.906C36.5195 33.326 36.75 33.8956 36.75 34.4896C36.75 35.0836 36.5195 35.6532 36.1093 36.0732C35.6991 36.4932 35.1427 36.7292 34.5625 36.7292C32.13 36.7292 27.125 33.0383 27.125 32.6979Z" fill="#D32F2F"/>
<path d="M44.4588 8.90459L42.6038 11.9952C41.3499 14.0797 39.5955 15.8006 37.5078 16.994C35.4201 18.1874 33.0686 18.8135 30.6775 18.8125H24.0625C23.0182 18.8125 22.0167 19.2372 21.2783 19.9932C20.5398 20.7492 20.125 21.7746 20.125 22.8438C20.125 23.9129 20.5398 24.9383 21.2783 25.6943C22.0167 26.4503 23.0182 26.875 24.0625 26.875H26.25C26.7096 26.875 27.1648 26.9677 27.5894 27.1478C28.014 27.3278 28.3999 27.5918 28.7249 27.9245C29.0499 28.2573 29.3077 28.6523 29.4836 29.0871C29.6595 29.5218 29.75 29.9878 29.75 30.4583C29.7494 31.2523 29.4913 32.0236 29.0162 32.6511C28.5411 33.2785 27.8759 33.7267 27.125 33.9252C26.39 34.1223 25.5325 34.3194 24.5963 34.4896C22.9694 34.7636 21.3039 34.6722 19.715 34.2218C18.126 33.7714 16.6517 32.9728 15.3942 31.8813C14.1366 30.7898 13.1258 29.4314 12.4318 27.9003C11.7378 26.3692 11.3772 24.7019 11.375 23.014V21.5C11.375 18.4113 12.5734 15.4492 14.7067 13.2652C16.8399 11.0811 19.7332 9.85417 22.75 9.85417C22.75 9.1414 23.0266 8.45782 23.5188 7.95382C24.0111 7.44982 24.6788 7.16667 25.375 7.16667H43.505C43.7039 7.16488 43.8997 7.21779 44.0718 7.31988C44.2439 7.42197 44.3861 7.56949 44.4836 7.74705C44.581 7.9246 44.6301 8.12568 44.6257 8.32929C44.6214 8.5329 44.5637 8.73158 44.4588 8.90459Z" fill="#F44336"/>
<path d="M32.375 8.0625C32.375 8.77527 32.6516 9.45885 33.1438 9.96285C33.6361 10.4669 34.3038 10.75 35 10.75C35.6962 10.75 36.3639 10.4669 36.8562 9.96285C37.3484 9.45885 37.625 8.77527 37.625 8.0625C37.625 7.34973 37.3484 6.66615 36.8562 6.16215C36.3639 5.65815 35.6962 5.375 35 5.375C34.3038 5.375 33.6361 5.65815 33.1438 6.16215C32.6516 6.66615 32.375 7.34973 32.375 8.0625Z" fill="#263238"/>
<path d="M35 7.16668C35 7.40427 35.0922 7.63213 35.2563 7.80013C35.4204 7.96813 35.6429 8.06251 35.875 8.06251C36.1071 8.06251 36.3296 7.96813 36.4937 7.80013C36.6578 7.63213 36.75 7.40427 36.75 7.16668C36.75 6.92909 36.6578 6.70123 36.4937 6.53323C36.3296 6.36523 36.1071 6.27084 35.875 6.27084C35.6429 6.27084 35.4204 6.36523 35.2563 6.53323C35.0922 6.70123 35 6.92909 35 7.16668Z" fill="#B0BEC5"/>
<path d="M22.75 17.0208H21.945L20.195 10.1677C21.032 9.96248 21.8894 9.85726 22.75 9.85416V17.0208ZM17.955 28.0217L18.48 28.6487L16.0037 32.3933C15.4812 32.0041 14.9923 31.5695 14.5425 31.0944L17.955 28.0217ZM23.625 30.4583H24.4387L25.4187 34.3283C24.85 34.4448 24.255 34.5523 23.625 34.6508V30.4583ZM13.0375 15.471L17.8412 20.3981L17.2637 20.9804L12.0137 17.7912C12.2731 16.9826 12.6163 16.2048 13.0375 15.471Z" fill="#D32F2F"/>
<path d="M34.2125 27.7708C31.5 27.7708 25.0687 30.4583 25.0687 30.4583C25.0687 30.4583 31.3687 33.1458 34.0462 33.1458C36.1375 33.1458 37.625 32.4381 37.625 30.4583C37.625 28.4786 36.4262 27.7708 34.2125 27.7708Z" fill="#F44336"/>
<path d="M14.4944 57.3624C12.5019 56.9493 12.5019 54.1036 14.4944 53.6905L26.7182 51.1562C27.7274 50.9469 28.7688 50.948 29.7776 51.1591L41.8727 53.6912C43.8605 54.1074 43.8604 56.9455 41.8727 57.3617L29.7776 59.8938C28.7688 60.105 27.7274 60.106 26.7182 59.8968L14.4944 57.3624Z" fill="#FF820C" fill-opacity="0.15"/>
</svg>
